<?xml version="1.0" standalone="no"?>
<!DOCTYPE svg PUBLIC "-//W3C//DTD SVG 20010904//EN"
 "http://www.w3.org/TR/2001/REC-SVG-20010904/DTD/svg10.dtd">
<svg version="1.0" xmlns="http://www.w3.org/2000/svg"
 width="1092.000000pt" height="1280.000000pt" viewBox="0 0 1092.000000 1280.000000"
 preserveAspectRatio="xMidYMid meet">
<g transform="translate(0.000000,1280.000000) scale(0.100000,-0.100000)"
fill="#000000" stroke="none">
<path d="M6400 12743 c-364 -27 -805 -170 -1126 -364 -656 -396 -1114 -1124
-1310 -2084 -145 -708 -133 -1532 32 -2325 19 -90 34 -174 34 -185 0 -15 -117
-123 -412 -381 -226 -197 -444 -388 -483 -424 -223 -202 -351 -420 -380 -645
-3 -27 -1 -180 4 -340 6 -159 11 -351 12 -427 1 -126 0 -139 -22 -179 -31 -56
-77 -86 -142 -93 -101 -10 -1532 -26 -1569 -17 -60 14 -122 53 -132 84 -8 23
-2 51 32 157 43 127 43 129 80 140 59 19 153 75 210 125 63 56 136 157 157
215 35 100 13 123 -117 122 -51 -1 -133 -6 -183 -11 -113 -14 -219 -13 -365 2
-194 20 -215 9 -191 -100 25 -111 114 -246 206 -310 l30 -21 -39 -157 c-42
-172 -43 -204 -5 -280 27 -54 114 -140 163 -160 51 -22 39 -21 1361 -85 237
-12 440 -26 453 -31 22 -9 23 -12 20 -131 l-3 -123 -557 -5 c-545 -5 -557 -5
-585 -26 -61 -45 -64 -118 -6 -164 25 -19 39 -20 578 -20 464 0 554 -2 564
-14 7 -9 11 -40 9 -78 l-3 -63 -695 -7 c-961 -11 -1189 -17 -1167 -33 29 -21
19 -25 -23 -10 -22 8 -40 10 -40 6 0 -5 75 -116 166 -247 l167 -239 -11 -270
c-7 -148 -21 -497 -32 -775 -11 -278 -23 -529 -26 -558 l-5 -52 -157 -93 c-86
-51 -225 -133 -309 -181 l-151 -88 -11 -61 c-5 -34 -17 -107 -27 -162 l-16
-101 195 -458 c107 -252 199 -461 204 -465 4 -4 611 -4 1348 0 4057 24 4809
29 4813 34 5 4 -33 258 -44 297 -3 10 -183 140 -401 290 -217 149 -404 279
-414 287 -17 15 -19 69 -34 1031 l-16 1015 116 274 c63 151 114 276 111 278
-2 3 -249 58 -548 123 -299 65 -595 131 -658 147 l-115 28 -755 0 -755 0 -14
56 c-25 98 -112 89 824 89 l827 0 29 29 c41 41 41 101 0 142 l-29 29 -799 1
c-439 1 -816 1 -838 0 -73 -4 -89 9 -109 86 -30 113 -28 108 -36 92 -4 -8 -13
-45 -20 -84 -7 -39 -19 -76 -28 -82 -17 -14 -157 -17 -261 -7 l-62 7 3 130 3
129 50 19 c110 41 231 173 253 274 6 29 5 204 -4 497 -16 499 -14 520 39 609
56 93 60 94 336 81 130 -7 385 -19 566 -28 182 -8 344 -17 361 -20 28 -4 37
-15 93 -120 125 -234 301 -509 466 -729 767 -1021 1737 -1654 2693 -1756 164
-17 504 -7 657 20 532 94 974 328 1351 713 213 217 373 445 519 743 231 469
358 965 405 1580 16 204 13 658 -5 875 -74 878 -297 1637 -700 2380 -502 927
-1139 1665 -1835 2127 -366 243 -775 412 -1155 478 -175 30 -425 42 -605 28z
m-3212 -8252 c19 -11 -1 -121 -25 -138 -17 -13 -207 -19 -237 -7 -20 8 -23
139 -3 147 21 9 251 7 265 -2z"/>
</g>
</svg>
