<svg width="122.88" height="122.88" xmlns="http://www.w3.org/2000/svg" xml:space="preserve" enable-background="new 0 0 122.88 122.88">

 <g>
  <title>Layer 1</title>
  <path id="svg_2" d="m50.125,81.63l-15.66,-14.2l15.66,14.2zm-41.333,-81.63l105.296,0c2.422,0 4.62,0.988 6.212,2.58s2.58,3.791 2.58,6.212l0,105.295c0,2.422 -0.988,4.62 -2.58,6.212s-3.79,2.58 -6.212,2.58l-105.296,0c-2.421,0 -4.62,-0.988 -6.212,-2.58s-2.58,-3.789 -2.58,-6.211l0,-105.296c0,-2.421 0.988,-4.62 2.58,-6.212s3.791,-2.58 6.212,-2.58l0,0zm0,7.17c-0.442,0 -0.847,0.184 -1.143,0.479c-0.295,0.296 -0.479,0.701 -0.479,1.143l0,105.295c0,0.442 0.184,0.848 0.479,1.144c0.296,0.296 0.701,0.479 1.143,0.479l105.296,0c0.442,0 0.848,-0.184 1.144,-0.479c0.295,-0.296 0.479,-0.701 0.479,-1.144l0,-105.295c0,-0.443 -0.185,-0.848 -0.479,-1.143c-0.296,-0.295 -0.702,-0.479 -1.144,-0.479l-105.296,0z"/>
 </g>
</svg>