<?xml version="1.0" standalone="no"?>
<!DOCTYPE svg PUBLIC "-//W3C//DTD SVG 20010904//EN"
 "http://www.w3.org/TR/2001/REC-SVG-20010904/DTD/svg10.dtd">
<svg version="1.0" xmlns="http://www.w3.org/2000/svg"
 width="862.000000pt" height="1280.000000pt" viewBox="0 0 862.000000 1280.000000"
 preserveAspectRatio="xMidYMid meet">
<metadata>
Created by potrace 1.15, written by Peter Selinger 2001-2017
</metadata>
<g transform="translate(0.000000,1280.000000) scale(0.100000,-0.100000)"
fill="#000000" stroke="none">
<path d="M6258 12784 c-26 -8 -49 -18 -52 -22 -2 -4 -13 -112 -22 -240 -10
-128 -21 -237 -24 -243 -4 -6 -181 -6 -521 2 -1188 25 -1744 34 -1752 28 -4
-3 -23 -201 -42 -440 -91 -1151 -136 -1719 -156 -1984 -11 -159 -23 -297 -26
-305 -2 -8 -12 7 -22 35 -65 184 -258 327 -686 510 -116 49 -132 62 -201 162
-33 47 -40 67 -45 127 -7 69 -6 73 31 141 21 39 44 89 51 113 10 36 16 42 39
42 34 0 70 38 108 115 75 149 98 255 68 313 -9 17 -16 52 -16 78 0 41 5 52 41
91 83 90 87 154 20 294 -22 46 -45 105 -52 132 -35 141 -161 227 -390 264 -95
16 -109 16 -198 1 -104 -18 -372 -109 -488 -166 -129 -63 -176 -127 -252 -349
-46 -135 -40 -165 33 -184 l44 -11 1 -97 c2 -182 35 -307 87 -321 17 -4 19
-15 19 -85 1 -69 5 -87 28 -130 25 -45 27 -55 21 -117 l-7 -67 -56 -17 c-85
-24 -107 -39 -210 -139 -53 -51 -118 -104 -146 -118 -64 -32 -187 -70 -295
-92 -100 -20 -210 -58 -260 -90 -57 -36 -128 -122 -164 -199 -43 -90 -64 -174
-77 -312 -5 -59 -11 -110 -13 -112 -4 -3 -66 88 -66 98 0 3 15 13 32 21 61 26
42 78 -36 101 -31 9 -36 13 -20 15 29 5 58 38 50 58 -3 9 -25 24 -48 34 -39
16 -41 19 -21 25 33 10 39 44 14 70 -19 18 -35 21 -126 24 l-105 4 0 61 c0 34
5 136 10 227 7 110 7 166 0 168 -6 2 -4 14 4 30 11 21 12 39 4 82 -5 30 -11
57 -13 58 -2 2 -13 -14 -24 -37 -14 -27 -20 -55 -19 -88 2 -26 -4 -110 -11
-186 -11 -107 -17 -137 -28 -133 -8 3 -20 -9 -32 -32 -23 -46 -53 -73 -108
-101 -143 -71 -159 -143 -92 -391 l32 -115 61 -55 c156 -140 256 -248 282
-305 24 -53 26 -65 21 -149 -6 -104 -67 -334 -120 -451 -28 -62 -32 -80 -32
-160 0 -72 6 -107 29 -179 36 -110 151 -344 200 -408 89 -116 175 -105 345 46
41 36 76 64 78 62 2 -1 -26 -92 -61 -202 -183 -566 -244 -831 -286 -1234 -6
-58 -13 -117 -15 -132 -4 -24 2 -31 50 -58 30 -17 57 -35 60 -41 4 -5 26 -134
50 -287 239 -1518 376 -2034 779 -2946 58 -132 106 -245 106 -252 0 -7 -56
-170 -125 -362 -69 -193 -125 -359 -125 -371 0 -11 18 -99 41 -196 l40 -175
-88 -143 c-213 -340 -283 -494 -283 -623 0 -63 28 -108 85 -138 34 -18 57 -21
155 -20 104 0 123 3 198 32 246 93 372 253 497 633 l39 117 45 14 c46 14 46
14 54 69 l9 56 61 11 c39 7 79 24 114 47 l53 35 7 -28 c5 -15 8 -90 8 -167 -1
-118 -5 -156 -27 -240 -58 -221 -56 -316 7 -379 113 -113 422 -57 532 97 72
100 101 192 128 403 9 71 31 184 50 251 47 171 60 266 45 336 -22 107 -91 176
-241 239 l-79 33 6 61 c13 129 -37 278 -156 464 l-54 83 23 121 c136 722 188
1090 346 2425 36 305 70 560 76 567 6 8 20 14 31 14 10 0 21 6 23 13 8 23 45
611 55 872 9 248 2 599 -18 823 -4 45 -7 82 -6 82 1 0 42 -40 91 -89 107 -108
144 -124 225 -98 29 9 53 15 55 14 1 -2 -13 -205 -32 -453 -19 -247 -66 -865
-105 -1374 -39 -509 -77 -1010 -85 -1114 -8 -105 -12 -193 -8 -197 5 -4 141
-16 303 -28 162 -12 305 -24 316 -26 l21 -5 -24 -117 c-22 -109 -488 -2403
-694 -3422 -49 -244 -88 -445 -86 -447 9 -10 299 -36 306 -28 5 5 120 553 256
1219 136 666 250 1213 253 1217 4 3 133 0 287 -8 154 -7 768 -36 1365 -64
1404 -65 1672 -78 1675 -82 2 -2 73 -572 159 -1268 152 -1225 164 -1320 171
-1320 12 0 349 41 350 43 2 2 -630 3951 -639 4001 l-6 29 114 -7 c62 -4 250
-18 417 -31 167 -12 307 -21 311 -19 3 2 4 12 2 22 -3 9 70 1300 161 2867 91
1568 197 3392 235 4055 39 663 71 1214 72 1225 3 24 52 22 -1227 55 -456 12
-832 24 -834 26 -2 2 4 99 13 216 9 117 16 223 16 234 0 18 -15 26 -94 53
-103 34 -156 37 -228 15z"/>
</g>
</svg>
